<svg width="30" height="189" viewBox="0 0 30 189" fill="none" xmlns="http://www.w3.org/2000/svg">
<path d="M29.64 173.96C29.64 182.12 23.48 188.44 15 188.44C6.48 188.44 0.319999 182.12 0.319999 173.92C0.319999 170.16 1.6 166.68 4.28 164L7.64 166.4C5.76 168.6 4.64 171.28 4.64 174.04C4.64 179.48 9 183.6 15 183.6C21.04 183.6 25.32 179.4 25.32 174C25.32 170.48 23.48 167.72 21.72 165.84L25.2 163.48C27.88 166.2 29.64 169.64 29.64 173.96ZM29.64 147.047C29.64 155.007 23.48 161.487 15 161.487C6.48 161.487 0.319998 155.007 0.319998 147.047C0.319997 139.047 6.48 132.567 15 132.567C23.48 132.567 29.64 139.047 29.64 147.047ZM25.32 147.007C25.32 141.687 21.04 137.407 15 137.407C8.92 137.407 4.64 141.687 4.64 147.007C4.64 152.247 8.92 156.607 15 156.607C21.04 156.607 25.32 152.247 25.32 147.007ZM29.8 105.616L11.24 123.656L29 123.656L29 128.376L0.199996 128.376L0.199996 127.936L18.96 109.896L0.999995 109.896L0.999994 105.176L29.8 105.176L29.8 105.616ZM29 99.9381L0.999994 99.9381L0.999994 91.2181C0.999993 84.3781 5.12 80.3381 10.28 80.3381C15.48 80.3381 19.52 84.3781 19.52 91.2581L19.52 95.1381L29 95.1381L29 99.9381ZM15.68 95.1381L15.68 91.4981C15.68 87.2581 13.32 85.1781 10.28 85.1781C7.23999 85.1781 4.83999 87.2981 4.83999 91.4981L4.83999 95.1381L15.68 95.1381ZM29 81.9837L0.199994 68.8237L0.199994 68.4237L29 55.2637L29 60.2637L24.12 62.2637L24.12 74.9837L29 76.9837L29 81.9837ZM20.36 73.4237L20.36 63.8237L8.79999 68.6237L20.36 73.4237ZM29.8 29.4828L11.24 47.5228L29 47.5228L29 52.2428L0.199993 52.2428L0.199993 51.8028L18.96 33.7628L0.999991 33.7628L0.999991 29.0428L29.8 29.0428L29.8 29.4828ZM29 15.8453L18.4 15.8453L0.999991 26.0853L0.999991 20.7653L14.48 13.4453L0.99999 6.12531L0.99999 0.805311L18.4 11.0453L29 11.0453L29 15.8453Z" fill="black"/>
</svg>
