<svg width="30" height="192" viewBox="0 0 30 192" fill="none" xmlns="http://www.w3.org/2000/svg">
<path d="M25.1914 166.477C28.1602 169.497 29.6445 173.026 29.6445 177.062C29.6445 181.099 28.2578 184.504 25.4844 187.277C22.7109 190.051 19.2083 191.437 14.9766 191.437C10.7448 191.437 7.2487 190.051 4.48828 187.277C1.71484 184.504 0.328124 181.092 0.328124 177.043C0.328124 172.993 1.64323 169.647 4.27344 167.004L7.63281 169.406C5.6276 171.75 4.63151 174.289 4.64453 177.023C4.64453 179.758 5.6276 182.036 7.59375 183.859C9.54687 185.682 12.0208 186.594 15.0156 186.594C17.9974 186.594 20.4648 185.676 22.418 183.84C24.3581 182.004 25.3281 179.686 25.3281 176.887C25.3281 174.087 24.1237 171.405 21.7148 168.84L25.1914 166.477ZM22.418 156.848C24.3581 154.986 25.3281 152.714 25.3281 150.031C25.3281 147.349 24.3581 145.083 22.418 143.234C20.4648 141.372 17.9909 140.441 14.9961 140.441C11.9883 140.441 9.51432 141.372 7.57422 143.234C5.62109 145.083 4.64453 147.349 4.64453 150.031C4.64453 152.714 5.6276 154.986 7.59375 156.848C9.54687 158.71 12.0208 159.641 15.0156 159.641C17.9974 159.641 20.4648 158.71 22.418 156.848ZM25.4648 139.816C28.2513 142.616 29.6445 146.034 29.6445 150.07C29.6445 154.107 28.2513 157.525 25.4648 160.324C22.6784 163.124 19.1823 164.523 14.9766 164.523C10.7708 164.523 7.28125 163.124 4.50781 160.324C1.72135 157.525 0.328123 154.107 0.328123 150.07C0.328123 146.034 1.72135 142.616 4.50781 139.816C7.29427 137.004 10.7904 135.598 14.9961 135.598C19.1888 135.598 22.6784 137.004 25.4648 139.816ZM29 131.418L0.328122 131.418L0.328122 131.008L14.5664 118.137L0.328121 105.246L0.328121 104.855L29 104.855L29 109.582L11.5195 109.582L20.7578 117.941L20.7578 118.371L11.5195 126.691L29 126.691L29 131.418ZM15.6797 94.7773L15.6797 91.1445C15.6797 89.0872 15.1784 87.5182 14.1758 86.4375C13.1732 85.3568 11.8776 84.8164 10.2891 84.8164C8.70052 84.8164 7.39192 85.3633 6.36328 86.457C5.34765 87.5508 4.83984 89.1133 4.83984 91.1445L4.83984 94.7773L15.6797 94.7773ZM29 99.582L0.992183 99.582L0.992183 90.8516C0.992183 87.5182 1.8776 84.875 3.64843 82.9219C5.41927 80.9687 7.63281 79.9857 10.2891 79.9727C12.9453 79.9727 15.1458 80.9557 16.8906 82.9219C18.6354 84.888 19.5143 87.5443 19.5273 90.8906L19.5273 94.7773L29 94.7773L29 99.582ZM20.3672 73.0586L20.3672 63.4687L8.80468 68.2734L20.3672 73.0586ZM29 81.6328L0.191401 68.4687L0.191401 68.0586L29 54.9141L29 59.9141L24.1172 61.9062L24.1172 74.6211L29 76.6328L29 81.6328ZM29 47.1602L29 51.8867L0.1914 51.8867L0.1914 51.4375L18.9609 33.4102L0.992181 33.4102L0.99218 28.6836L29.8008 28.6836L29.8008 29.1328L11.2461 47.1602L29 47.1602ZM29 15.4805L18.3945 15.4805L0.99218 25.7344L0.99218 20.4023L14.4883 13.0781L0.992179 5.77344L0.992179 0.441406L18.3945 10.6953L29 10.6953L29 15.4805Z" fill="black"/>
</svg>
