<svg width="30" height="183" viewBox="0 0 30 183" fill="none" xmlns="http://www.w3.org/2000/svg">
<path d="M29.64 167.96C29.64 176.12 23.48 182.44 15 182.44C6.48 182.44 0.319999 176.12 0.319999 167.92C0.319999 164.16 1.6 160.68 4.28 158L7.64 160.4C5.76 162.6 4.64 165.28 4.64 168.04C4.64 173.48 9 177.6 15 177.6C21.04 177.6 25.32 173.4 25.32 168C25.32 164.48 23.48 161.72 21.72 159.84L25.2 157.48C27.88 160.2 29.64 163.64 29.64 167.96ZM29.64 141.047C29.64 149.007 23.48 155.487 15 155.487C6.48 155.487 0.319998 149.007 0.319998 141.047C0.319997 133.047 6.48 126.567 15 126.567C23.48 126.567 29.64 133.047 29.64 141.047ZM25.32 141.007C25.32 135.687 21.04 131.407 15 131.407C8.92 131.407 4.64 135.687 4.64 141.007C4.64 146.247 8.92 150.607 15 150.607C21.04 150.607 25.32 146.247 25.32 141.007ZM29.8 99.6156L11.24 117.656L29 117.656L29 122.376L0.199996 122.376L0.199996 121.936L18.96 103.896L0.999995 103.896L0.999994 99.1756L29.8 99.1756L29.8 99.6156ZM29 86.6981L5.16 86.6981L5.16 95.4981L0.999994 95.4981L0.999993 73.0981L5.15999 73.0981L5.15999 81.8981L29 81.8981L29 86.6981ZM29 76.2572L0.199994 63.0972L0.199994 62.6972L29 49.5372L29 54.5372L24.12 56.5372L24.12 69.2572L29 71.2572L29 76.2572ZM20.36 67.6972L20.36 58.0972L8.79999 62.8972L20.36 67.6972ZM29.64 35.6553C29.64 43.8153 23.48 50.1353 15 50.1353C6.47999 50.1353 0.319994 43.8153 0.319993 35.6153C0.319993 31.8553 1.59999 28.3753 4.27999 25.6953L7.63999 28.0953C5.75999 30.2953 4.63999 32.9753 4.63999 35.7353C4.63999 41.1753 8.99999 45.2953 15 45.2953C21.04 45.2953 25.32 41.0953 25.32 35.6953C25.32 32.1753 23.48 29.4153 21.72 27.5353L25.2 25.1753C27.88 27.8953 29.64 31.3353 29.64 35.6553ZM29 14.0809L5.15999 14.0809L5.15999 22.8809L0.999991 22.8809L0.99999 0.480937L5.15999 0.480936L5.15999 9.28094L29 9.28094L29 14.0809Z" fill="black"/>
</svg>
