<svg width="197" height="40" viewBox="0 0 197 40" fill="none" xmlns="http://www.w3.org/2000/svg">
<path fill-rule="evenodd" clip-rule="evenodd" d="M0 30V0H30.0209L22.5157 7.5H7.50522V22.5L0 30ZM20.0139 40H40.0279V20L20.0139 40ZM40.0279 0L0 40H10.007L40.0279 10V0Z" fill="black"/>
<path d="M196.045 33.4769L179.381 16.3446V32.7384H175.021V6.15381H175.427L192.091 23.4707V6.89227H196.451V33.4769H196.045Z" fill="black"/>
<path d="M152.587 32.7385V6.89233H169.436V10.7323H157.021V18.4123H167.958V22.2523H157.021V28.8985H169.806V32.7385H152.587Z" fill="black"/>
<path d="M128.677 32.7385V32.4431L140.944 10.6216H130.377V6.89233H147.928V7.18772L135.365 29.0093H147.521V32.7385H128.677Z" fill="black"/>
<path d="M114.965 33.3293C108.758 33.3293 104.398 29.4154 104.398 22.8062V6.89233H108.832V22.8062C108.832 26.7939 111.049 29.3416 114.965 29.3416C118.919 29.3416 121.099 26.7939 121.099 22.8062V6.89233H125.533V22.8062C125.533 29.4154 121.21 33.3293 114.965 33.3293Z" fill="black"/>
<path d="M86.0426 33.3293C78.6898 33.3293 72.7041 27.6431 72.7041 19.8154C72.7041 11.9508 78.6898 6.26465 86.0426 6.26465C93.4324 6.26465 99.4181 11.9508 99.4181 19.8154C99.4181 27.6431 93.4324 33.3293 86.0426 33.3293ZM86.0796 29.3416C90.9938 29.3416 94.9473 25.3908 94.9473 19.8154C94.9473 14.2031 90.9938 10.2523 86.0796 10.2523C81.2393 10.2523 77.2119 14.2031 77.2119 19.8154C77.2119 25.3908 81.2393 29.3416 86.0796 29.3416Z" fill="black"/>
<path d="M59.9926 33.2554C55.5957 33.2554 52.0856 31.4461 49.7578 28.0123L52.6768 25.6492C54.4873 28.3077 56.815 29.6738 59.8818 29.6738C63.2072 29.6738 65.1655 28.1231 65.1655 25.9446C65.1655 23.4707 62.5051 22.3631 59.734 21.2923C56.15 19.8523 51.79 18.3384 51.79 13.3169C51.79 8.9969 55.0415 6.30151 60.1035 6.30151C63.7614 6.30151 66.8282 7.70459 68.5648 10.2154L65.7566 12.5046C64.3526 10.6954 62.3574 9.91997 60.1774 9.91997C57.4432 9.91997 56.0022 11.1384 56.0022 12.9846C56.0022 15.2 58.1821 16.1231 61.4336 17.4154C65.2394 18.8923 69.5993 20.5538 69.5993 25.5015C69.5993 30.3384 65.5719 33.2554 59.9926 33.2554Z" fill="black"/>
</svg>
