<svg width="30" height="136" viewBox="0 0 30 136" fill="none" xmlns="http://www.w3.org/2000/svg">
<path d="M29 135.64L0.199998 122.48L0.199998 122.08L29 108.92L29 113.92L24.12 115.92L24.12 128.64L29 130.64L29 135.64ZM20.36 127.08L20.36 117.48L8.8 122.28L20.36 127.08ZM29 105.899L0.999997 105.899L0.999996 96.4991C0.999996 90.4991 4.44 87.2591 8.2 87.2591C10.6 87.2591 12.8 88.5791 14.04 91.1391C15.12 87.3391 17.76 85.2991 21 85.2991C25.32 85.2991 29 88.8591 29 95.4591L29 105.899ZM12.6 101.099L12.6 96.8591C12.6 93.6991 10.92 92.0191 8.56 92.0191C6.24 92.0191 4.52 93.6991 4.52 96.8591L4.52 101.099L12.6 101.099ZM25.16 101.099L25.16 95.7391C25.16 92.1391 23.32 90.2191 20.6 90.2191C17.92 90.2191 16.12 92.0991 16.12 95.7391L16.12 101.099L25.16 101.099ZM29.64 68.5156C29.64 76.4756 23.48 82.9556 15 82.9556C6.48 82.9556 0.319997 76.4756 0.319997 68.5156C0.319996 60.5156 6.48 54.0356 15 54.0356C23.48 54.0356 29.64 60.5156 29.64 68.5156ZM25.32 68.4756C25.32 63.1556 21.04 58.8756 15 58.8756C8.92 58.8756 4.64 63.1556 4.64 68.4756C4.64 73.7156 8.92 78.0756 15 78.0756C21.04 78.0756 25.32 73.7156 25.32 68.4756ZM29.64 38.4044C29.64 45.1244 25.4 49.8444 18.24 49.8444L0.999994 49.8444L0.999994 45.0444L18.24 45.0444C22.56 45.0444 25.32 42.6444 25.32 38.4044C25.32 34.1244 22.56 31.7644 18.24 31.7644L0.999994 31.7644L0.999993 26.9644L18.24 26.9644C25.4 26.9644 29.64 31.6444 29.64 38.4044ZM29 14.4403L5.15999 14.4403L5.15999 23.2403L0.999993 23.2403L0.999992 0.840312L5.15999 0.840311L5.15999 9.64031L29 9.64031L29 14.4403Z" fill="black"/>
</svg>
